<svg xmlns="http://www.w3.org/2000/svg" viewBox="0 0 64 64" width="64" height="64">
    <defs>
        <linearGradient id="itchGrad" x1="0%" y1="0%" x2="0%" y2="100%">
            <stop offset="0%" style="stop-color:#fa5c5c" />
            <stop offset="100%" style="stop-color:#da2c49" />
        </linearGradient>
        <filter id="itchShadow" x="-20%" y="-20%" width="140%" height="140%">
            <feDropShadow dx="0" dy="2" stdDeviation="2" flood-color="#000" flood-opacity="0.3" />
        </filter>
    </defs>
    
    <!-- Base Shape -->
    <path d="M10 12 C10 8 12 6 16 6 L48 6 C52 6 54 8 54 12 L54 44 C54 48 52 50 48 50 L40 50 L40 58 L24 58 L24 50 L16 50 C12 50 10 48 10 44 Z" 
          fill="url(#itchGrad)" filter="url(#itchShadow)" />
    
    <!-- Inner details (The "i" and "io" shape roughly) -->
    <path d="M18 16 L24 16 L24 22 L18 22 Z M40 16 L46 16 L46 22 L40 22 Z M18 28 L46 28 L46 36 L40 36 L40 42 L24 42 L24 36 L18 36 Z" 
          fill="white" opacity="0.9" />
</svg>
